<?xml version="1.0" encoding="utf-8"?>
<!-- Generator: Adobe Illustrator 27.0.1, SVG Export Plug-In . SVG Version: 6.00 Build 0)  -->
<svg version="1.1" id="Layer_1" xmlns="http://www.w3.org/2000/svg" xmlns:xlink="http://www.w3.org/1999/xlink" x="0px" y="0px"
	 viewBox="0 0 1920 1080" style="enable-background:new 0 0 1920 1080;" xml:space="preserve">
<style type="text/css">
	.st0{fill:#8EA3C9;}
	.st1{fill:none;stroke:#8BC53F;stroke-width:0.25;stroke-miterlimit:10;}
	.st2{fill:#FFFFFF;}
	.st3{fill:#8BC53F;stroke:#8BC53F;stroke-width:0.25;stroke-miterlimit:10;}
	.st4{font-family:'FranklinGothic-HeavyItalic';}
	.st5{font-size:230px;}
	.st6{letter-spacing:3;}
</style>
<path class="st0" d="M567.03,556.07c0,0-2.04-17.6-1.85-35.37c0.14-12.58,0.23-18.86,2.46-26.14c3.19-10.42,8.5-17.1,14.45-24.6
	c7.55-9.51,11.35-11.27,27.99-28.6c3.97-4.14,7.16-7.59,9.23-9.84c-18.96-8.41-37.93-16.81-56.89-25.22
	c-2.21-1.14-5.43-3.14-8.53-6.46c-3.44-3.68-5.27-7.42-6.23-9.84c-3.33-14.96-4.55-22.57-3.65-22.83c0.69-0.2,2.62,3.93,5.8,12.38
	c1.01,2.89,3,7.28,7.07,11.07c4.49,4.19,9.35,5.64,13.53,6.77c7.28,1.96,18.43,4.55,33.21,6.46
	c-15.68-15.48-31.37-30.96-47.05-46.44c11.99,0.1,23.99,0.21,35.98,0.31c4.87-0.05,11.51,0.4,19.07,2.46
	c8.48,2.31,15,5.81,19.37,8.61c0,8.3,0,16.61,0,24.91c4.51,4.72,9.02,9.43,13.53,14.15c3.03-6.75,7.46-16.23,13.22-27.37
	c12.46-24.07,24.1-42.21,31.98-53.82c11.86-17.46,17.98-26.36,27.37-35.06c12.37-11.46,24.69-18.38,33.21-22.45
	c9.19-1.74,21.58-4.01,36.29-6.46c0,0,30.18-5.02,55.97-8.3c63.95-8.15,135.01-8.61,135.01-8.61c6.55-0.04,81.31-0.33,152.84,8.92
	c42.19,5.46,80.27,13.84,80.27,13.84c6.26,1.38,11.39,2.58,14.76,3.38c6.14,4.01,14.72,10.16,23.99,18.76
	c14.49,13.46,23.53,26.34,32.91,40.9c11.34,17.62,26.71,43.19,43.36,76.58c4.38-4.94,8.77-9.89,13.15-14.83
	c-0.18-3.85-0.37-8.61-0.54-14.08c-0.19-6.32-0.17-7.63,0.62-9.23c1.8-3.68,5.95-5.48,15.38-7.69c13.5-3.16,21.83-3.69,21.83-3.69
	c8.99-0.57,20.98-1.01,35.37-0.62c-15.38,15.48-30.75,30.96-46.13,46.44c10.25-2.03,20.51-4.07,30.76-6.1
	c2.89-0.65,5.92-1.72,8.91-3.43c15.15-8.68,17.96-27.34,18.45-31.06c0.61,4.14,1.33,13.07-2.77,23.06c-1.07,2.6-3.74,8.4-9.32,14.06
	c-7.96,8.07-17.01,10.99-21.43,12.08c-13.63,5.64-27.27,11.28-40.9,16.91c11.89,12.2,23.78,24.4,35.67,36.6
	c3.13,2.96,7.6,7.82,11.38,14.76c3.92,7.2,5.31,13.38,6.15,17.22c4.75,21.82,0.96,52.41,0.31,57.51
	c-0.82-11.59-1.72-21.31-2.46-28.6c-1.3-12.82-1.92-16.23-3.08-20.3c-1.36-4.78-3.96-13.55-10.76-22.14
	c-4.52-5.71-9.1-9.06-11.96-11.12c-19.32-13.92-44.95-29.95-51.08-33.78c-12.86,10.12-26.49,20.3-40.9,30.45
	c-30.59,21.53-60.38,39.81-88.57,55.36c15.73-11.95,29.42-23,40.9-32.6c5.07-4.23,20.45-17.17,39.98-35.06
	c11.13-10.19,20.57-19.21,27.99-26.45c-7.02-1.11-17.2-2.61-29.52-4c-22.47-2.54-39.58-3.32-47.97-3.69
	c-76.75-3.37-114.4-4.31-114.4-4.31c-63.13-1.57-94.69-2.35-115.32-2.46c-38.44-0.21-65.25-0.35-100.87,0.92
	c-13.53,0.48-29.02,1.2-55.36,1.85c-29.46,0.72-29.34,0.3-49.51,0.92c-17.19,0.53-42.31,1.35-74.12,4.31
	c-14.47,1.35-31.1,3.21-49.51,5.84c3.73,3.47,9.39,8.71,16.3,15.07c26.4,24.31,39.6,36.46,52.9,47.67
	c9.17,7.72,22.57,18.62,39.67,31.06c-5.57-2.83-13.33-6.87-22.45-11.99c-29.29-16.44-50.36-31.42-64.89-41.82
	c-11.28-8.08-25.48-18.66-41.52-31.68c-10.31,7.21-18.77,12.97-24.6,16.91c-4.8,3.24-15.44,10.39-28.29,20.3
	c-7.02,5.41-9.15,7.37-11.38,10.15c-4,4.99-7,10.98-9.84,22.76C571.95,509.64,568.65,523.37,567.03,556.07z"/>
<path class="st1" d="M1456.11,334.96"/>
<path class="st0" d="M589.69,502.87c9.21,4.8,22.56,11.57,38.95,19.27c9.88,4.64,19.23,9.03,28.29,12.71
	c19.89,8.07,37.31,12.25,58.64,16.4c45.83,8.92,84.51,12.81,91.85,13.53c67.37,6.61,120.96,7.11,161.15,7.38
	c14.93,0.1,35.84,0.1,61.1-0.41c40.94-0.83,83.9-1.69,139-7.38c64.77-6.69,98.92-15.15,120.61-21.93
	c17.09-5.34,32.77-11.62,33.98-12.11c23.19-9.33,41.99-19.15,55.77-27.06c-1.76,6.72-4.62,16.61-9.02,28.29
	c-6.06,16.08-9.8,26.01-18.04,36.49c-4.38,5.57-12.06,13.87-24.6,21.32c-6.01,1.64-12.03,3.28-18.04,4.92
	c-16.77,1.34-30.37,1.62-39.36,1.64c-29.48,0.07-42.39-2.5-75.41-2.17c-11.16,0.11-17.92,0.48-28.33,0.94
	c-35.77,1.58-63.14,1.89-113.99,2.46c-53.35,0.6-80.03,0.9-116.04,0c-28.26-0.71-32.06-1.35-85.7-2.87
	c-37.74-1.07-56.33-1.34-76.69-1.21c-23.47,0.15-43.07,0.77-57.03,1.35c-20.21-0.32-40.43-0.64-60.64-0.96
	c-5.81-0.97-14.44-3.2-22.96-9.02c-6.11-4.17-13.41-11.04-26.38-38.64C601.76,535.17,595.56,520.68,589.69,502.87z"/>
<path class="st2" d="M624.13,542.65c12.92,5.99,28.29,12.41,45.92,18.45c8.75,3,22.99,7.84,42.23,12.3
	c13.79,3.2,30.48,6.28,49.62,8.2c-5.28,0.84-12.58,1.83-21.32,2.46c-8.59,0.62-14.47,0.59-36.08,0c-34.85-0.96-40.8-1.47-49.21-5.33
	c-8.94-4.1-14.35-9.09-15.99-10.66C629.68,558.85,625.76,548.3,624.13,542.65z"/>
<path class="st1" d="M1107.57,722.73"/>
<path class="st2" d="M1346.32,542.7c-5.69,2.67-13.55,6.21-23.06,9.99c-23.03,9.17-41.15,14-57.51,18.3
	c-14.58,3.83-32.99,8.16-54.59,11.99c16.08,1.85,29.61,2.16,39.83,2c7.09-0.11,18.87-1.1,42.44-3.08c1.63-0.14,4.92-0.42,9.23-1.08
	c5.81-0.89,10.91-1.67,15.07-3.23c9.56-3.59,14.92-11.59,20.76-20.3C1342.39,551.47,1344.85,546.23,1346.32,542.7z"/>
<path class="st2" d="M1275.59,398.93c-10.33,0.29-26.66,0.68-46.74,0.92c-40.18,0.48-49.59-0.2-77.5,0.31
	c-23.4,0.43-40.92,1.41-75.96,3.38c-57.71,3.24-57.42,4.58-79.34,4.31c-9.68-0.12-3.13-0.3-67.35-3.38
	c-24.77-1.19-36.92-1.7-49.51-2.15c-8.61-0.31-18.86-0.62-39.36-1.23c-23.14-0.69-34.71-1.04-43.36-1.23
	c-12.13-0.27-29.15-0.56-49.82-0.61c-1.96-11.75-3.45-25.86-3.39-41.83c0.07-16.65,1.8-31.28,4-43.36
	c-1.71,2.76-4.15,6.86-6.77,11.99c-8.96,17.57-12.68,32.68-15.68,45.21c-1.69,7.05-3.68,16.56-5.23,27.99
	c-8.82-0.21-17.63-0.41-26.45-0.62c2.8-15.42,6.45-28.04,9.51-37.24c4.45-13.4,10.8-32.07,24.63-52.87
	c6.67-10.03,13.16-17.67,17.84-22.76c11.48-1.64,22.96-3.28,34.44-4.92c16.81-1.64,33.62-3.28,50.44-4.92
	c29.62-1.86,54.12-2.99,71.35-3.69c45.91-1.86,85.91-3.41,136.85-1.85c23.64,0.73,42.87,1.91,55.05,2.77
	c25.54,1.44,52.23,3.63,79.96,6.77c18.4,2.08,36.24,4.46,53.51,7.07c2.85,3.61,6.74,8.73,11.07,15.07
	c7.65,11.22,20.15,29.82,28.91,55.97C1270,367.98,1273.73,381.82,1275.59,398.93z"/>
<path class="st3" d="M649.59,708.55"/>
<g>
	<text transform="matrix(1 0 0 1.15 247.7788 824.5918)" class="st2 st4 st5 st6">CARS 4 Sale</text>
</g>
</svg>
